<?xml version="1.0" encoding="UTF-8"?>
<svg id="Layer_1" data-name="Layer 1" xmlns="http://www.w3.org/2000/svg" viewBox="0 0 95.43 24">
  <path d="M42.05,12.64c-.31-.63-.8-1.19-1.49-1.58.09-.13.17-.27.25-.41.23-.44.34-.93.35-1.42,0-.48-.11-.97-.35-1.42-.56-1.08-1.77-1.91-3.64-1.91h-4.71v5.3c-.57.38-1,.88-1.27,1.44-.23.49-.35,1.02-.35,1.55s.11,1.06.35,1.55c0,.02.02.03.03.05.6,1.2,1.89,2.12,3.86,2.12h3.09c1.97,0,3.26-.92,3.86-2.12,0-.02.02-.03.03-.05.24-.49.35-1.02.35-1.55s-.12-1.06-.35-1.55h-.01ZM34.59,8.01h2.59c.97,0,1.54.34,1.76.76.08.14.12.3.12.45s-.04.31-.12.46c-.23.45-.81.8-1.76.8h-2.59v-2.47ZM40.17,14.82c-.27.54-.92.97-1.98.97h-3.11c-1.06,0-1.71-.43-1.98-.97-.09-.2-.14-.41-.14-.63s.05-.43.15-.63c.27-.55.92-.96,1.98-.96h3.09c1.06,0,1.71.4,1.98.96.1.2.15.42.15.63s-.05.43-.14.63Z" fill="#ff3e1a"/>
  <rect x="27.82" y="5.96" width="2.12" height="12.03" fill="#ff3e1a"/>
  <polygon points="19.19 10.16 16.79 10.16 14.63 12.74 14.05 13.43 14.05 5.89 11.93 5.89 11.93 17.93 14.05 17.93 14.05 14.87 14.67 15.56 16.79 17.93 19.27 17.93 15.87 14.12 19.19 10.16" fill="#ff3e1a"/>
  <polygon points="64.67 14.12 67.99 10.16 65.59 10.16 63.43 12.74 62.85 13.43 62.85 5.89 60.73 5.89 60.73 17.93 62.85 17.93 62.85 14.87 63.47 15.56 65.59 17.93 68.07 17.93 64.67 14.12" fill="#ff3e1a"/>
  <path d="M47.15,10.15c-1.1,0-2.09.45-2.81,1.17-.73.72-1.17,1.71-1.17,2.81s.45,2.09,1.17,2.81c.72.72,1.71,1.16,2.81,1.16s2.09-.44,2.81-1.16,1.16-1.71,1.16-2.81-.44-2.09-1.16-2.81c-.72-.72-1.71-1.17-2.81-1.17ZM48.46,15.44c-.33.33-.8.54-1.31.54s-.98-.21-1.31-.54c-.33-.33-.54-.8-.54-1.31s.2-.98.54-1.31c.33-.33.8-.54,1.31-.54s.97.2,1.31.54c.33.33.54.8.54,1.31s-.21.97-.54,1.31Z" fill="#ff3e1a"/>
  <path d="M55.86,10.15c-1.1,0-2.09.45-2.81,1.17-.73.72-1.17,1.71-1.17,2.81s.45,2.09,1.17,2.81,1.71,1.16,2.81,1.16,2.09-.44,2.81-1.16c.72-.72,1.16-1.71,1.16-2.81s-.44-2.09-1.16-2.81-1.71-1.17-2.81-1.17ZM57.16,15.44c-.33.33-.8.54-1.31.54s-.98-.21-1.31-.54c-.33-.33-.54-.8-.54-1.31s.2-.98.54-1.31c.33-.33.8-.54,1.31-.54s.97.2,1.31.54c.33.33.54.8.54,1.31s-.21.97-.54,1.31Z" fill="#ff3e1a"/>
  <path d="M24.53,11.05c-.41-.7-1.24-.9-1.98-.88-1.05.02-2,.47-2.69,1.16s-1.17,1.71-1.17,2.81.45,2.09,1.17,2.81c.69.69,1.64,1.15,2.69,1.15.73,0,1.74-.47,1.98-.95v.78h2.11v-7.77h-2.11v.89ZM23.98,15.45c-.33.34-.8.54-1.31.54-.04,0-.08,0-.12-.01-.47-.02-.89-.22-1.19-.53-.34-.33-.55-.8-.55-1.31s.21-.98.55-1.31c.3-.31.72-.52,1.19-.54.04-.01.08-.01.12-.01.51,0,.98.21,1.31.55.33.33.54.8.54,1.31s-.21.98-.54,1.31Z" fill="#ff3e1a"/>
  <path d="M70.19,17.99c-.61,0-1.11-.5-1.11-1.11s.5-1.12,1.11-1.12,1.12.5,1.12,1.12-.5,1.11-1.12,1.11Z" fill="#ff3e1a"/>
  <path d="M74.66,10.35v7.58h-2.12v-7.58h2.12Z" fill="#ff3e1a"/>
  <path d="M82.35,11.33c.72.72,1.16,1.71,1.16,2.81s-.44,2.09-1.16,2.81-1.71,1.16-2.81,1.16-2.09-.44-2.81-1.16-1.17-1.71-1.17-2.81.44-2.09,1.17-2.81c.72-.72,1.71-1.17,2.81-1.17s2.09.45,2.81,1.17ZM79.54,12.29c-.51,0-.98.21-1.31.54-.34.33-.54.8-.54,1.31s.21.98.54,1.31.8.54,1.31.54.98-.21,1.31-.54c.33-.34.54-.8.54-1.31s-.21-.98-.54-1.31-.8-.54-1.31-.54Z" fill="#ff3e1a"/>
  <circle cx="73.6" cy="8.8" r="1.12" fill="#ff3e1a"/>
</svg>