<?xml version="1.0" standalone="no"?>
<!DOCTYPE svg PUBLIC "-//W3C//DTD SVG 20010904//EN"
 "http://www.w3.org/TR/2001/REC-SVG-20010904/DTD/svg10.dtd">
<svg version="1.0" xmlns="http://www.w3.org/2000/svg"
 width="48.000000pt" height="48.000000pt" viewBox="0 0 48.000000 48.000000"
 preserveAspectRatio="xMidYMid meet">

<g transform="translate(0.000000,48.000000) scale(0.100000,-0.100000)"
fill="currentColor" stroke="none">
<path d="M107 394 c-16 -16 -7 -44 14 -44 15 0 20 5 17 22 -3 22 -19 33 -31
22z"/>
<path d="M347 394 c-16 -16 -7 -44 14 -44 15 0 20 5 17 22 -3 22 -19 33 -31
22z"/>
<path d="M136 264 c-9 -8 -16 -20 -16 -25 0 -14 26 -11 40 6 7 8 16 12 21 9
17 -10 9 -41 -17 -65 -14 -13 -30 -32 -35 -41 -9 -16 -4 -18 46 -18 30 0 55 5
55 10 0 6 -14 10 -32 10 l-31 0 20 23 c19 21 43 60 43 71 0 13 -34 36 -55 36
-13 0 -31 -7 -39 -16z"/>
<path d="M260 240 c0 -38 2 -40 30 -40 25 0 30 -4 30 -25 0 -27 -18 -33 -38
-13 -9 9 -15 9 -23 1 -8 -8 -4 -15 12 -27 32 -22 42 -20 67 14 27 37 16 70
-23 70 -16 0 -25 6 -25 15 0 10 10 15 30 15 20 0 30 5 30 15 0 11 -12 15 -45
15 l-45 0 0 -40z"/>
</g>
</svg>
