<?xml version="1.0" encoding="UTF-8"?>
<svg id="Layer_1" data-name="Layer 1" xmlns="http://www.w3.org/2000/svg" viewBox="0 0 80 24">
  <rect width="80" height="24" rx="4" ry="4" fill="none"/>
  <g>
    <path d="M42.35,12.74c-.31-.63-.8-1.19-1.49-1.58.09-.13.17-.27.25-.41.23-.44.34-.93.35-1.42,0-.48-.11-.97-.35-1.42-.56-1.08-1.77-1.91-3.64-1.91h-4.71v5.3c-.57.38-1,.88-1.27,1.44-.23.49-.35,1.02-.35,1.55,0,.53.11,1.06.35,1.55,0,.02.02.03.03.05.6,1.2,1.89,2.12,3.86,2.12h3.09c1.97,0,3.26-.92,3.86-2.12,0-.02.02-.03.03-.05.24-.49.35-1.02.35-1.55,0-.53-.12-1.06-.35-1.55ZM34.89,8.12h2.59c.97,0,1.54.34,1.76.76.08.14.12.3.12.45,0,.15-.04.31-.12.46-.23.45-.81.8-1.76.8h-2.59v-2.47ZM35.38,15.89c-1.06,0-1.71-.43-1.98-.97-.09-.2-.14-.41-.14-.63s.05-.43.15-.63c.27-.55.92-.96,1.98-.96h3.09c1.06,0,1.71.4,1.98.96.1.2.15.42.15.63s-.05.43-.14.63c-.27.54-.92.97-1.98.97h-3.09Z" fill="#ff3e1a"/>
    <path d="M13.7,6v6.76l1.7-2.3h2.12l-1.78,2.41,2.79,5.16h-2.12l-1.89-3.5-.82,1.1v2.4h-2.12V6h2.12Z" fill="#ff3e1a"/>
    <path d="M27.82,18.03V6h2.12v12.03h-2.12Z" fill="#ff3e1a"/>
    <path d="M50.25,11.43c.72.72,1.16,1.71,1.16,2.81s-.44,2.09-1.16,2.81c-.72.72-1.71,1.16-2.81,1.16s-2.09-.44-2.81-1.16c-.72-.72-1.17-1.71-1.17-2.81s.44-2.09,1.17-2.81c.72-.72,1.71-1.17,2.81-1.17s2.09.45,2.81,1.17ZM47.44,12.38c-.51,0-.98.21-1.31.54-.34.33-.54.8-.54,1.31s.21.98.54,1.31c.33.33.8.54,1.31.54s.98-.21,1.31-.54c.33-.34.54-.8.54-1.31s-.21-.98-.54-1.31c-.34-.34-.8-.54-1.31-.54Z" fill="#ff3e1a"/>
    <path d="M24.37,10.46v.26c-.55-.29-1.19-.46-1.86-.46-1.1,0-2.09.45-2.81,1.17-.72.72-1.17,1.71-1.17,2.81s.44,2.09,1.17,2.81c.72.72,1.71,1.16,2.81,1.16.67,0,1.3-.17,1.86-.46v.27h2.12v-7.57h-2.12ZM23.82,15.55c-.34.33-.8.54-1.31.54s-.98-.21-1.31-.54c-.34-.34-.54-.8-.54-1.31s.21-.98.54-1.31c.33-.34.8-.54,1.31-.54s.98.21,1.31.54c.33.33.54.8.54,1.31s-.21.98-.54,1.31Z" fill="#ff3e1a"/>
    <path d="M58.97,11.43c.72.72,1.16,1.71,1.16,2.81s-.44,2.09-1.16,2.81c-.72.72-1.71,1.16-2.81,1.16s-2.09-.44-2.81-1.16c-.72-.72-1.17-1.71-1.17-2.81s.44-2.09,1.17-2.81c.72-.72,1.71-1.17,2.81-1.17s2.09.45,2.81,1.17ZM56.15,12.38c-.51,0-.98.21-1.31.54-.34.33-.54.8-.54,1.31s.21.98.54,1.31c.33.33.8.54,1.31.54s.98-.21,1.31-.54c.33-.34.54-.8.54-1.31s-.21-.98-.54-1.31c-.34-.34-.8-.54-1.31-.54Z" fill="#ff3e1a"/>
    <path d="M63.59,6v6.76l1.7-2.3h2.12l-1.78,2.41,2.79,5.16h-2.12l-1.89-3.5-.82,1.1v2.4h-2.12V6h2.12Z" fill="#ff3e1a"/>
  </g>
</svg>