<?xml version="1.0" encoding="UTF-8"?>
<svg id="Layer_1" data-name="Layer 1" xmlns="http://www.w3.org/2000/svg" viewBox="0 0 24 24">
  <rect width="24" height="24" rx="4" ry="4" fill="none"/>
  <path d="M19.23,12.98c-.41-.84-1.07-1.59-1.98-2.1.12-.18.23-.35.33-.54.3-.59.46-1.24.46-1.9,0-.65-.15-1.29-.46-1.89-.74-1.43-2.36-2.55-4.85-2.55h-6.27v7.06c-.76.5-1.33,1.17-1.69,1.92-.31.65-.47,1.35-.47,2.07,0,.71.15,1.41.47,2.06,0,.02.02.04.03.06.79,1.6,2.51,2.83,5.14,2.83h4.11c2.63,0,4.35-1.23,5.14-2.83.01-.02.03-.04.03-.06.32-.65.47-1.35.47-2.06,0-.71-.16-1.42-.47-2.07ZM9.29,6.82h3.44c1.29,0,2.05.45,2.34,1.02.1.19.16.4.16.6,0,.2-.05.41-.16.61-.3.59-1.08,1.06-2.34,1.06h-3.44v-3.28ZM9.94,17.18c-1.41,0-2.28-.57-2.64-1.29-.13-.27-.19-.55-.19-.84s.07-.57.19-.83c.35-.74,1.23-1.27,2.63-1.27h4.11c1.41,0,2.28.54,2.63,1.27.13.27.2.56.2.83s-.06.57-.19.84c-.35.73-1.22,1.29-2.64,1.29h-4.11Z" fill="#ff3e1b"/>
</svg>
